<svg xmlns="http://www.w3.org/2000/svg" width="19.98" height="19.98" viewBox="0 0 19.98 19.98">
  <g id="Drag_N_Drop" data-name="Drag N Drop" transform="translate(-2.01 -2.01)">
    <path id="Path_22" data-name="Path 22" d="M21.24,13.51a.755.755,0,0,0-.75.75v.5a1.25,1.25,0,0,1-1.25,1.25h-.5a.75.75,0,0,0,0,1.5h.5a2.748,2.748,0,0,0,2.75-2.75v-.5A.755.755,0,0,0,21.24,13.51Z" fill="#757b8c"/>
    <path id="Path_23" data-name="Path 23" d="M21.24,7.51a.755.755,0,0,0-.75.75v3a.75.75,0,0,0,1.5,0v-3A.755.755,0,0,0,21.24,7.51Z" fill="#757b8c"/>
    <path id="Path_24" data-name="Path 24" d="M18.74,3.51h.5a1.25,1.25,0,0,1,1.25,1.25v.5a.75.75,0,0,0,1.5,0v-.5a2.748,2.748,0,0,0-2.75-2.75h-.5a.75.75,0,0,0,0,1.5Z" fill="#757b8c"/>
    <path id="Path_25" data-name="Path 25" d="M12.74,3.51h3a.75.75,0,0,0,0-1.5h-3a.75.75,0,0,0,0,1.5Z" fill="#757b8c"/>
    <path id="Path_26" data-name="Path 26" d="M7.24,6.01a.755.755,0,0,0,.75-.75v-.5A1.25,1.25,0,0,1,9.24,3.51h.5a.75.75,0,1,0,0-1.5h-.5A2.748,2.748,0,0,0,6.49,4.76v.5A.749.749,0,0,0,7.24,6.01Z" fill="#757b8c"/>
    <path id="Path_27" data-name="Path 27" d="M7.24,7.51a.755.755,0,0,0-.75.75v3a.75.75,0,0,0,1.5,0v-3A.755.755,0,0,0,7.24,7.51Z" fill="#757b8c"/>
    <path id="Path_28" data-name="Path 28" d="M10.49,14.58l3.86-3.86v1.27a.75.75,0,0,0,1.5,0V8.91a.749.749,0,0,0-.75-.75H12.01a.75.75,0,0,0,0,1.5h1.27l-.48.48L9.43,13.51a.628.628,0,0,0-.12.18,2.723,2.723,0,0,0-1.41-.4H4.82A2.812,2.812,0,0,0,2.01,16.1v3.08a2.812,2.812,0,0,0,2.81,2.81H7.9a2.812,2.812,0,0,0,2.81-2.81V16.1a2.723,2.723,0,0,0-.4-1.41A.67.67,0,0,0,10.49,14.58Z" fill="#757b8c"/>
    <path id="Path_29" data-name="Path 29" d="M15.74,16.01h-3a.75.75,0,0,0,0,1.5h3a.75.75,0,0,0,0-1.5Z" fill="#757b8c"/>
  </g>
</svg>
